<?xml version="1.0" encoding="UTF-8"?>
<svg viewBox="0 0 570.225 433.8125" xmlns="http://www.w3.org/2000/svg">
 <defs>
  <clipPath id="a">
   <path d="m0 0h1900.7v1446h-1900.7v-1446z"/>
  </clipPath>
 </defs>
 <g transform="matrix(1.25 0 0 -1.25 0 433.81)">
  <g transform="scale(.24)">
   <g clip-path="url(#a)" fill="#256e5d">
    <path d="m61.684 215.89v1014.3c0 85.02 69.175 154.2 154.2 154.2h1469c85.03 0 154.21-69.17 154.21-154.2v-1014.3c0-85.02-69.18-154.2-154.21-154.2h-1469c-85.028 0-154.2 69.183-154.2 154.2zm154.2 1230.2c-119.04 0-215.89-96.85-215.89-215.88v-1014.3c0-119.05 96.844-215.89 215.89-215.89h1469c119.04 0 215.89 96.84 215.89 215.89v1014.3c0 119.04-96.85 215.88-215.89 215.88h-1469"/>
    <path d="m384.78 192.53v435.79h130.46c74.93-1.383 156.82 13.882 217.89 62.464 73.559 58.282 97.152 158.22 97.152 247.03 0 145.73-56.922 295.61-242.88 295.61h-396.94v-1040.9h194.32zm0 888.23h88.821c109.64 0 156.82-18.04 156.82-137.4 0-126.29-56.902-162.38-141.56-162.38h-104.09v299.78"/>
    <path d="m624.8 192.53 14.523 74.559h64.348l14.531-74.559h58.864l-66.715 294.3h-74.157l-70.238-294.3h58.844zm39.644 201.3c2.747 13.75 3.922 27.094 5.489 40.828 0.402 6.657 1.175 13.344 1.957 19.606h0.789c0.781-6.262 1.574-12.949 1.972-19.606 1.559-13.734 2.75-27.078 5.477-40.828l14.926-83.574h-47.094l16.484 83.574"/>
    <path d="m863.38 319.27c15.699 0 31.797 0.398 46.711-3.911 18.828-5.496 18.445-30.226 18.828-48.269 0.406-19.621-0.785-55.715 5.895-74.559h60.41v5.5c-13.321 8.633-11.762 80.825-11.762 92.989 0 28.25-9.801 49.062-42.379 53.371v0.801c36.891 5.085 45.125 38.832 45.125 71.015 0 54.168-36.102 70.629-83.578 70.629h-103.98v-294.3h54.929v126.74h9.805zm-9.805 124.41h40.817c20.804-0.387 34.527-5.887 34.527-38.867 0-29.41-14.125-41.188-32.184-42.375h-43.16v81.242"/>
    <path d="m1031.3 192.53v294.3h54.94v-130.67h0.78c8.65 23.16 22.77 49.047 34.53 70.641l32.17 60.027h62.03l-72.6-126.36 76.11-167.95h-61.99l-51.81 116.16-19.22-31.793v-84.364h-54.94"/>
    <path d="m1242 192.53h54.938v294.3h-54.938v-294.3z"/>
    <path d="m1474.3 486.83h54.97v-294.3h-57.31l-42.76 104.77c-14.53 34.926-26.31 70.641-39.24 116.94h-0.79c1.96-24.32 4.31-54.136 5.9-83.972 1.54-29.426 2.72-58.852 2.72-82.403v-55.332h-54.93v294.3h56.9l42.78-107.13c14.13-34.136 25.91-69.047 39.25-116.93h0.77c-1.96 26.687-3.92 55.332-5.5 83.582-1.56 28.25-2.76 56.531-2.76 82.789v57.695"/>
    <path d="m1569.7 363.23c2.35 74.949 8.23 130.67 96.12 130.67 47.1-0.391 79.67-12.543 92.24-63.567 2.74-11.773 2.34-23.93 2.74-35.703h-54.94c-0.79 29.816-2.74 53.371-40.04 54.922-43.15 0-39.6-51.402-39.6-74.152v-81.622c0-24.32 1.96-63.968 39.6-63.968 31.4 0 41.62 33.355 40.42 77.703h-38.04v43.16h91.42v-158.14h-41.21v33.75h-0.77c-10.99-30.613-31.8-39.257-51.82-40.812-90.23 0-96.12 57.289-96.12 135.78v41.985"/>
    <path d="m1540.5 810.91 55.24 305.75-305.79-55.21c-25.73-7.38-55.25-29.5-31.31-53.43 20.8-20.786 62.29-34.622 72.95-37.887l-191.78-191.74 117.91-117.9 191.58 191.59c3.55-11.328 17.31-52.027 37.76-72.469 23.93-23.949 46.11 5.516 53.44 31.301"/>
   </g>
  </g>
 </g>
</svg>
